<?xml version="1.0" encoding="utf-8"?>
<!-- Generator: Adobe Illustrator 24.2.1, SVG Export Plug-In . SVG Version: 6.00 Build 0)  -->
<svg version="1.1" id="Layer_1" xmlns="http://www.w3.org/2000/svg" xmlns:xlink="http://www.w3.org/1999/xlink" x="0px" y="0px"
	 viewBox="0 0 8000 8000" style="enable-background:new 0 0 8000 8000;" xml:space="preserve">
<style type="text/css">
	.st0{fill:#BEBEBE;}
	.st1{fill:#81CCBE;}
	.st2{fill:#FCEAEF;}
	.st3{fill:#FFFFFF;}
</style>
<path class="st0" d="M6605.5,4742.4c-19.7,47.1-41.6,92.1-66.1,134.8c-88.8,176-219.1,312-387.8,389.1
	c-426.1,194.7-975.2-42.1-1386.6-545.2c-289.4-310.9-503.6-672.3-654.4-1075.6c-35.9-95.9-66.6-193.8-103.1-300.7
	c-43.8,124.3-80.1,236.1-122.2,345.6c-165.2,430-405.2,813.1-736.7,1134.1c-105.1,101.8-228.2,184.9-343.1,276.5
	c-23.6,15.1-47.2,30.1-70.8,45.2c-12.6,4.8-25.3,9.7-37.9,14.5c-301.4,179.4-619.3,228.4-888.2,105.5
	c-357.4-163.3-541.9-590.7-526.6-1102.1c-6.4-128-0.9-257.6,12.7-388.2c63-606.4,282.9-1152.4,640-1642.8
	c186.6-256.2,407.3-480.5,685.1-641.1c53-30.7,77.3-52.5,38.7-122.4c-107.3-194.2-68-422.3,82.4-587.3
	c203-222.8,463.7-337,751.2-393.8c153.4-30.3,311.1-56.8,466.5-55.4c390.9,3.6,769.8,70.7,1096.1,307.2
	c178.3,129.2,308.5,294.6,292.2,530.6c-5.8,83.4-40.7,164.8-64.8,256.4c44,24.9,98.2,52.5,149.3,84.9
	c361.9,229.6,626.7,549.4,841.4,914.2c241.3,410.1,392.1,852.2,448.5,1324.3C6761.6,4089.2,6739,4423.8,6605.5,4742.4z"/>
<g>
	<path class="st1" d="M5695.9,5706.6c-5.6,67.4-8.9,132.9-17,197.9c-32.5,263-82.2,522.7-157.8,777
		c-39.6,133.2-87.6,263.1-162.5,381.7c-55.7,88-134.5,151.1-216.4,212.3c-223.4,166.7-468,291.6-737,364.1
		c-311.6,83.9-620.4,67.9-925.7-39.6c-256.1-90.2-486.8-223-697.4-392.7c-103.9-83.8-166.9-195.8-216.6-316.5
		c-93.6-227.6-148.1-466-188.6-707.3c-24.9-148-38.7-297.8-57.3-446.8c-1.1-9.3-0.1-18.8-0.1-31.6c71.2-5.4,141.7-10.8,212.2-16.1
		c171.9-12.9,340.2-39.7,501.4-106.3c163.3-67.4,304.5-165.8,433.9-283.9c73-66.6,151.4-126.4,240.3-170.9
		c112.5-56.4,233.7-50.5,354.9-52.4c194.7-3.1,340.1,96.5,476.7,217c102.7,90.6,207,178.4,331.3,239.4
		c157.4,77.2,320.9,132.4,497.2,145.5C5474.7,5685.2,5582.1,5696.3,5695.9,5706.6z"/>
	<path class="st1" d="M5696.9,5666.7c-106.1-9.3-207.2-19.5-308.6-26.7c-204-14.5-394.1-75.7-566.9-181.8
		c-92.4-56.7-173.3-131.8-260.2-197.6c-65.8-49.8-130.7-101.1-199.7-146.2c-74-48.3-158-73.7-246.6-75c-91-1.3-182.8-3.5-273,6.5
		c-137.1,15.3-245.1,94.6-348.9,178.7c-87.2,70.7-169.9,148.3-263.2,209.9c-176.9,116.6-373.1,185.4-585.7,203.5
		c-91.9,7.8-183.7,16.5-275.6,24.2c-16.6,1.4-33.5,0.2-57.3,0.2c0-31.4-0.2-61.9,0.2-92.3c0.1-4.8,1.3-12.5,4.4-14
		c27.1-13.2,24.2-22.9-2-33.1c-3.6-1.4-4.9-10.9-5.6-16.8c-9.6-85-9.5-84.9,73.4-94.2c131.6-14.8,265.1-20.5,394.4-46.7
		c211.5-42.8,398.7-140.6,559.3-286.6c89.3-81.2,176.3-165.1,268.9-242.4c98.5-82.2,214.8-122.6,344.2-119.7
		c74.1,1.7,148.9,0.2,222.1,10.1c127.1,17.2,226.5,91.6,319,174.2c75.1,67.1,144.1,141,221,205.8c181.8,153,390.8,248.4,628.1,276.4
		c113.6,13.4,227.8,22.3,341.9,32.3c18.3,1.6,27.2,6.4,25.5,26.3c-1.7,20-8,44.1,0.4,59.5c14.4,26.6-54.6,20.5-16.4,54.8
		c12.9,11.6,7.8,44.1,9.4,67.1C5700.3,5635.6,5698.1,5648.1,5696.9,5666.7z M4113.7,4857.8c-13.9,0-21.8-1.6-28.6,0.4
		c-9,2.6-17.2,8-25.7,12.2c8.6,5.3,16.8,13.9,26,15.3c23,3.5,46.4,4.7,69.7,4.7c7.4,0,14.9-6.8,22.3-10.4
		c-6.5-5.4-12.4-13.6-19.8-15.5C4141.3,4860.2,4124.2,4859.3,4113.7,4857.8z M3845.9,4890.2c34.3-1.6,61.8-2.1,89-4.8
		c6.4-0.6,12.1-8.8,18.2-13.5c-6-4.7-12.1-13.4-18-13.3c-28.4,0.6-56.9,2.9-85,6.6c-5.4,0.7-11.6,10.1-13.3,16.6
		C3836.1,4884.6,3845.9,4890.2,3845.9,4890.2z M3545.6,5035.8c-2.2-3.8-3.6-9.6-6.4-10.3c-5.5-1.4-13.6-2.4-17.4,0.6
		c-23.2,18.4-45.8,37.5-67.6,57.6c-3.8,3.5-2.5,12.6-3.6,19.2c7.3,0,17.1,3.1,21.6-0.5c22.4-17.7,43.6-37,65-55.9
		C3540.4,5043.8,3542.4,5040,3545.6,5035.8z M4552.5,5109.3c3.4-2.6,8.9-4.7,9.3-7.6c0.8-5.5,0.7-13.5-2.6-16.6
		c-21.6-20.1-43.6-39.8-66.8-58c-4.3-3.4-14.5,0.6-22,1.1c1.8,6.3,1.6,14.8,5.7,18.7c20.9,19.3,42.8,37.5,64.5,55.9
		C4543.8,5105.4,4547.9,5106.8,4552.5,5109.3z M2489.4,5541.2c12-1.3,33.3-2.4,54.1-6.3c6.2-1.1,11-9.8,16.4-15
		c-5.4-4.2-10.9-12.1-16.1-11.8c-29.6,1.4-59.2,4.2-88.6,8.2c-5,0.7-8.8,9.4-13.2,14.5c5.4,4.1,10.2,10.1,16.2,11.7
		C2465,5544.3,2472.9,5542.1,2489.4,5541.2z M5546.4,5543.4c3.6-2.2,13.8-8.4,23.9-14.5c-10.3-5.1-20.2-12.8-31-14.8
		c-21.8-3.8-44.1-5.5-66.2-5.9c-6.7-0.1-13.5,6.6-20.3,10.1c5.9,5.8,11,15.5,17.8,16.7C5492.3,5539.2,5514.6,5540.3,5546.4,5543.4z
		 M4388.7,4963.6c-2.7-8.1-2.9-12.6-4.8-13.6c-30.3-16.3-60.6-32.4-91.5-47.4c-2.6-1.2-12.4,5.4-13.2,9.6
		c-0.8,4.4,3.8,12.3,8.2,14.8c25.6,14.4,51.4,28.4,78,40.7C4371,4970.2,4380.1,4965.3,4388.7,4963.6z M3106.8,5383.3
		c29.6-18,58.6-35.2,86.8-53.6c2.7-1.8,2.1-11.9-0.2-16.7c-1.3-2.7-10.3-4.9-13.6-3.2c-27.8,15.1-55.3,30.9-82.3,47.5
		c-3.5,2.1-4.7,11.1-3.7,16.1C3094.7,5377,3101.2,5379.3,3106.8,5383.3z M2686.9,5519.8c30.6-4.5,53.9-6.8,76.5-12
		c7.3-1.7,12.8-11.1,19.1-17c-7.6-3.5-15.4-10.5-22.7-10c-23.2,1.7-46.4,5.1-69.1,10.1c-8.9,2-16.5,10-24.7,15.2
		C2674.5,5511.6,2682.9,5517.2,2686.9,5519.8z M5247.3,5479.3c-3.1,2.1-10.5,7.2-17.9,12.4c6.5,5.7,12.3,14.8,19.6,16.3
		c24.7,5,49.8,8.3,75,9.9c7.2,0.5,14.9-7,22.4-10.8c-6.7-5.2-12.8-13.3-20.3-15C5302.4,5486.8,5278.3,5484.1,5247.3,5479.3z
		 M4926.4,5371.4c-7.9-9.3-10.4-14.3-14.5-16.7c-25.3-15.2-50.6-30.3-76.7-44c-4.4-2.3-12.6,2.5-19.1,4.1c2.1,6.3,2.2,15.7,6.5,18.4
		c25,15.6,50.6,30.4,76.9,43.5C4904.8,5379.4,4914.2,5374.1,4926.4,5371.4z M5130.6,5458.3c-5.7-7.7-7.4-12.7-10.6-13.9
		c-29.4-11.6-58.9-23-88.9-33.1c-3.8-1.3-13,3.9-14.6,8c-1.5,3.8,2.6,13.4,6.5,15c28.2,11.7,56.8,22.6,85.8,32.1
		C5114,5468.1,5121.7,5461.9,5130.6,5458.3z M3296.4,5261.3c26.6-24.9,52.5-48.7,77.7-73.3c1.7-1.6-1.1-11.7-4-13.1
		c-4.5-2.1-12.8-2.2-16.3,0.7c-22.9,18.4-45.2,37.5-66.9,57.2c-3.7,3.4-5.4,11.1-4.8,16.5C3282.5,5252.7,3289,5255.4,3296.4,5261.3z
		 M4643.3,5166.3c-1.8,4-5.7,8.8-5.6,13.6c0.1,5.6,2,12.9,5.8,16.4c20.9,19.1,42.2,37.8,64.4,55.4c4.3,3.4,13,1.3,19.7,1.7
		c-1-7.4,0.8-17.6-3.4-21.6c-20.5-19.5-42.5-37.4-64.2-55.7C4657,5173.6,4653.1,5172,4643.3,5166.3z M3735.6,4922.8
		c-0.3-3.8-0.6-7.5-0.9-11.3c-6.2-3-14.5-10.1-18.3-8.2c-29.1,14.1-57.6,29.5-85.5,45.9c-2.2,1.3,1.7,13.2,2.8,20.1
		C3667.6,4953.8,3701.6,4938.3,3735.6,4922.8z M2900.1,5470.3c30.6-12.1,60.1-23.3,89.1-35.8c4-1.7,5.1-10.1,7.5-15.4
		c-6.2-2.6-13.7-8.9-18.5-7.3c-28,9.4-55.5,20.1-82.7,31.6c-4.4,1.9-8.9,9.9-8.5,14.7C2887.3,5462.1,2894.7,5465.5,2900.1,5470.3z"
		/>
</g>
<path class="st2" d="M4133.7,4857.8c10.5,1.4,27.6,2.4,43.9,6.6c7.4,1.9,13.2,10.2,19.8,15.5c-7.4,3.7-14.9,10.4-22.3,10.4
	c-23.3,0-46.7-1.2-69.7-4.7c-9.2-1.4-17.4-10-26-15.3c8.5-4.2,16.7-9.6,25.7-12.2C4111.9,4856.3,4119.8,4857.8,4133.7,4857.8z"/>
<path class="st2" d="M3865.9,4890.2c0,0-9.8-5.6-9.1-8.4c1.7-6.5,7.9-15.9,13.3-16.6c28.2-3.7,56.6-5.9,85-6.6
	c5.9-0.1,12,8.6,18,13.3c-6,4.7-11.7,12.8-18.2,13.5C3927.7,4888.1,3900.2,4888.5,3865.9,4890.2z"/>
<path class="st2" d="M3565.6,5035.8c-3.2,4.2-5.3,8-8.3,10.7c-21.4,18.9-42.6,38.3-65,55.9c-4.5,3.6-14.3,0.5-21.6,0.5
	c1.1-6.5-0.2-15.6,3.6-19.2c21.7-20.1,44.4-39.2,67.6-57.6c3.7-3,11.8-2,17.4-0.6C3562,5026.2,3563.4,5032,3565.6,5035.8z"/>
<path class="st2" d="M4572.5,5109.3c-4.6-2.5-8.7-3.9-11.8-6.6c-21.7-18.4-43.6-36.6-64.5-55.9c-4.1-3.8-3.9-12.3-5.7-18.7
	c7.5-0.6,17.6-4.5,22-1.1c23.2,18.2,45.2,37.9,66.8,58c3.3,3.1,3.4,11.2,2.6,16.6C4581.4,5104.6,4575.9,5106.7,4572.5,5109.3z"/>
<path class="st2" d="M5566.4,5543.4c-31.8-3.2-54.1-4.2-75.8-8.3c-6.7-1.3-11.9-10.9-17.8-16.7c6.8-3.6,13.6-10.3,20.3-10.1
	c22.1,0.5,44.4,2.1,66.2,5.9c10.9,1.9,20.7,9.6,31,14.8C5580.2,5535.1,5570.1,5541.2,5566.4,5543.4z"/>
<path class="st2" d="M4408.7,4963.6c-8.6,1.7-17.8,6.6-23.4,4c-26.6-12.3-52.5-26.3-78-40.7c-4.4-2.5-9.1-10.4-8.2-14.8
	c0.8-4.1,10.6-10.8,13.2-9.6c30.9,15,61.3,31.1,91.5,47.4C4405.8,4951,4406,4955.5,4408.7,4963.6z"/>
<path class="st2" d="M3126.8,5383.3c-5.6-4-12.2-6.3-12.9-9.8c-1.1-5.1,0.2-14,3.7-16.1c26.9-16.7,54.4-32.4,82.3-47.5
	c3.2-1.8,12.2,0.4,13.6,3.2c2.3,4.7,2.9,14.9,0.2,16.7C3185.4,5348,3156.4,5365.2,3126.8,5383.3z"/>
<path class="st2" d="M2706.9,5519.8c-4.1-2.7-12.5-8.2-20.9-13.7c8.2-5.2,15.8-13.2,24.7-15.2c22.7-5,45.9-8.4,69.1-10.1
	c7.3-0.5,15.1,6.5,22.7,10c-6.3,5.9-11.8,15.3-19.1,17C2760.8,5513,2737.5,5515.3,2706.9,5519.8z"/>
<path class="st2" d="M5267.3,5479.3c31,4.8,55.1,7.6,78.7,12.8c7.5,1.7,13.6,9.8,20.3,15c-7.5,3.8-15.2,11.3-22.4,10.8
	c-25.1-1.6-50.3-4.9-75-9.9c-7.3-1.5-13.1-10.7-19.6-16.3C5256.7,5486.5,5264.2,5481.4,5267.3,5479.3z"/>
<path class="st2" d="M4946.4,5371.4c-12.2,2.7-21.6,8-26.9,5.3c-26.3-13.2-51.9-27.9-76.9-43.5c-4.3-2.7-4.4-12.1-6.5-18.4
	c6.4-1.5,14.6-6.4,19.1-4.1c26.1,13.7,51.4,28.8,76.7,44C4936,5357.2,4938.5,5362.2,4946.4,5371.4z"/>
<path class="st2" d="M5150.6,5458.3c-8.9,3.5-16.6,9.8-21.7,8.1c-29-9.5-57.6-20.4-85.8-32.1c-3.9-1.6-8-11.2-6.5-15
	c1.6-4.1,10.8-9.3,14.6-8c29.9,10.1,59.4,21.5,88.9,33.1C5143.2,5445.7,5144.9,5450.6,5150.6,5458.3z"/>
<path class="st2" d="M3316.4,5261.3c-7.5-6-13.9-8.6-14.4-12c-0.7-5.3,1-13.1,4.8-16.5c21.7-19.7,44-38.9,66.9-57.2
	c3.6-2.9,11.8-2.7,16.3-0.7c2.9,1.3,5.7,11.5,4,13.1C3369,5212.6,3343.1,5236.5,3316.4,5261.3z"/>
<path class="st2" d="M4663.3,5166.3c9.7,5.7,13.6,7.3,16.7,9.9c21.6,18.3,43.7,36.2,64.2,55.7c4.2,4,2.4,14.2,3.4,21.6
	c-6.7-0.4-15.4,1.7-19.7-1.7c-22.2-17.6-43.5-36.3-64.4-55.4c-3.9-3.5-5.8-10.8-5.8-16.4C4657.6,5175.2,4661.5,5170.3,4663.3,5166.3
	z"/>
<path class="st2" d="M3755.6,4922.8c-34,15.5-67.9,31-101.9,46.5c-1.1-7-5.1-18.8-2.8-20.1c27.9-16.4,56.4-31.8,85.5-45.9
	c3.9-1.9,12.1,5.3,18.3,8.2C3755,4915.2,3755.3,4919,3755.6,4922.8z"/>
<path class="st2" d="M2920.1,5470.3c-5.4-4.7-12.8-8.2-13.2-12.2c-0.4-4.8,4.1-12.8,8.5-14.7c27.2-11.5,54.8-22.3,82.7-31.6
	c4.8-1.6,12.3,4.7,18.5,7.3c-2.4,5.3-3.5,13.7-7.5,15.4C2980.2,5447,2950.7,5458.2,2920.1,5470.3z"/>
<path d="M5464.2,4150.5l-27.2-59.6l-372.6,170.2c-22.6-43.2-51.5-82.6-86.4-117.5c-44.2-44.2-95.6-78.9-152.9-103.1
	c-59.3-25.1-122.3-37.8-187.3-37.8c-64.9,0-128,12.7-187.3,37.8c-57.3,24.2-108.7,58.9-152.9,103.1
	c-44.2,44.2-78.9,95.6-103.1,152.9c-9,21.3-16.4,43.1-22.2,65.3c-49.5,17.9-109.7,28.3-174.7,28.3c-58.2,0-112.7-8.4-158.9-23
	c-6-24-13.9-47.6-23.6-70.6c-24.2-57.3-58.9-108.7-103.1-152.9c-44.2-44.2-95.6-78.9-152.9-103.1c-59.3-25.1-122.3-37.8-187.3-37.8
	c-64.9,0-127.9,12.7-187.3,37.8c-57.3,24.2-108.7,58.9-152.9,103.1c-34.5,34.5-63.2,73.4-85.7,116.2l-369.7-168.9l-27.2,59.6
	l370.5,169.3c-19.1,52.5-28.7,107.6-28.7,164.1c0,64.9,12.7,128,37.8,187.3c24.2,57.3,58.9,108.7,103.1,152.9
	c44.2,44.2,95.6,78.9,152.9,103.1c59.3,25.1,122.3,37.8,187.3,37.8c64.9,0,127.9-12.7,187.3-37.8c57.3-24.2,108.7-58.9,152.9-103.1
	c44.2-44.2,78.8-95.6,103.1-152.9c25.1-59.3,37.8-122.4,37.8-187.3c0-1,0-2.1,0-3.1c43.1-12,92.4-18.8,144.7-18.8
	c58.3,0,112.8,8.4,159.1,23.1c0.1,64.5,12.9,127.1,37.8,186.1c24.2,57.3,58.9,108.7,103.1,152.9c44.2,44.2,95.6,78.9,152.9,103.1
	c59.3,25.1,122.3,37.8,187.3,37.8c64.9,0,127.9-12.7,187.3-37.8c57.3-24.2,108.7-58.9,152.9-103.1c44.2-44.2,78.9-95.6,103.1-152.9
	c25.1-59.3,37.8-122.4,37.8-187.3c0-56.1-9.5-110.7-28.2-162.7L5464.2,4150.5z M3754.8,4645.7c-20.9,49.5-50.9,93.9-89.1,132.1
	c-38.2,38.2-82.6,68.1-132.1,89.1c-51.2,21.7-105.6,32.7-161.8,32.7c-56.1,0-110.5-11-161.8-32.7c-49.5-20.9-93.9-50.9-132.1-89.1
	c-38.2-38.2-68.2-82.6-89.1-132.1c-21.7-51.2-32.6-105.6-32.6-161.8c0-56.1,11-110.5,32.6-161.8c20.9-49.5,50.9-93.9,89.1-132.1
	c38.2-38.2,82.6-68.1,132.1-89.1c51.2-21.7,105.6-32.6,161.8-32.6c56.1,0,110.5,11,161.8,32.6c49.5,20.9,93.9,50.9,132.1,89.1
	c38.2,38.2,68.1,82.6,89.1,132.1c21.7,51.2,32.6,105.6,32.6,161.8C3787.5,4540,3776.5,4594.5,3754.8,4645.7z M5020.8,4645.7
	c-20.9,49.5-50.9,93.9-89.1,132.1c-38.2,38.2-82.6,68.1-132.1,89.1c-51.2,21.7-105.6,32.7-161.8,32.7c-56.1,0-110.5-11-161.8-32.7
	c-49.5-20.9-93.9-50.9-132.1-89.1c-38.2-38.2-68.1-82.6-89.1-132.1c-21.7-51.2-32.7-105.6-32.7-161.8c0-56.1,11-110.5,32.7-161.8
	c20.9-49.5,50.9-93.9,89.1-132.1c38.2-38.2,82.6-68.1,132.1-89.1c51.2-21.7,105.6-32.6,161.8-32.6c56.1,0,110.5,11,161.8,32.6
	c49.5,20.9,93.9,50.9,132.1,89.1c38.2,38.2,68.1,82.6,89.1,132.1c21.7,51.2,32.6,105.6,32.6,161.8
	C5053.5,4540,5042.5,4594.5,5020.8,4645.7z"/>
<g>
	<g>
		<path class="st3" d="M2812.8,6184.3c-34.5-5.6-63.3-23.6-62.1-62.3c0-91.4,0-182.9,0-274.3c-0.2-40.6,28-66.4,62.1-83.1
			c62.1-14.1,124.5-27.2,187-39.3c37.8,2.6,63,23.5,62.6,63.1c0,24.9,0,49.9,0,74.8c-42.8,6.3-85.5,13-128.2,20
			c0-20.1,0-40.3,0-60.4c-3.2-1.8-4.8-2.7-8-4.6c-13.3,2.5-26.7,5-40,7.5c-3.2,3-4.8,4.5-8,7.5c0,87.2,0,174.4,0,261.6
			c3.2,2,4.8,3,8,5c13.3-1.5,26.6-3,40-4.5c3.2-2.8,4.8-4.1,8-6.9c0-26.2,0-52.3,0-78.5c-10.7,1.4-21.3,2.8-32,4.3
			c0-29.9,0-59.9,0-89.8c53.3-8.5,106.7-16.5,160.2-23.9c0,62.3,0,124.7,0,187c0.3,41.4-25.5,66.6-62.6,79.8
			C2937.4,6172.6,2875.1,6178.3,2812.8,6184.3z"/>
		<path class="st3" d="M3102.5,6159.4c0-151,0-301.9,0-452.9c83.5-14.3,167.3-26.9,251.3-37.6c39.7,6.6,63.3,30.8,63,72.2
			c0,33.9,0,67.8,0,101.7c0.2,38.3-19.5,66.4-54.1,81.6c23.4,49.1,46.5,98.3,69.5,147.5c0,22.4,0,44.9,0,67.3
			c-37.7,1.8-75.4,3.8-113.1,5.9c-24.5-59-49.2-117.9-74.2-176.7c-5.5,0.5-8.2,0.8-13.7,1.3c0,60.2,0,120.5,0,180.7
			C3188.3,6153.3,3145.4,6156.2,3102.5,6159.4z M3231.2,5769.7c0,38.7,0,77.4,0,116.2c16.1-1.8,32.2-3.6,48.4-5.3
			c3.2-2.9,4.8-4.4,8.1-7.4c0-34.8,0-69.5,0-104.3c-3.2-2.2-4.8-3.3-8.1-5.5C3263.4,5765.5,3247.3,5767.6,3231.2,5769.7z"/>
		<path class="st3" d="M3640.3,6035.5c-20.5,0.8-41.1,1.7-61.6,2.7c-3.2,31.7-6.5,63.5-9.7,95.2c-40.5,1.5-80.9,3.2-121.4,5.1
			c0-26.9,0-53.8,0-80.8c24.7-135.8,49.3-271.5,73.6-407.4c58.8-5.6,117.7-10.3,176.7-14.1c24.7,135.9,49.3,271.9,73.8,407.9
			c0,27.7,0,55.5,0,83.2c-40.6,0.9-81.1,2-121.7,3.2C3646.8,6098.9,3643.5,6067.2,3640.3,6035.5z M3589.2,5936
			c13.5-0.7,27-1.5,40.5-2.1c-5.4-51.2-10.8-102.3-16.2-153.5c-3.2,0.2-4.9,0.3-8.1,0.5C3600,5832.6,3594.6,5884.3,3589.2,5936z"/>
		<path class="st3" d="M4007.2,5625.2c37.9-0.3,75.8-0.2,113.7,0.2c0,166.4,0,332.8,0,499.1c-37.9-0.2-75.8-0.2-113.7-0.1
			c-27-72.3-54.1-144.6-81.2-216.9c-3.2,0-4.9,0.1-8.1,0.1c0,72.5,0,144.9,0,217.4c-37.9,0.4-75.8,1-113.7,1.7
			c0-165.4,0-330.8,0-496.2c37.9-1.6,75.8-2.9,113.7-3.9c27.2,72.1,54.2,144.2,81.2,216.3c3.2,0,4.9,0,8.1-0.1
			C4007.2,5770.3,4007.2,5697.8,4007.2,5625.2z"/>
		<path class="st3" d="M4364.5,5633.7c37.9,2.2,75.7,4.7,113.5,7.5c0,163.4,0,326.7,0,490.1c-37.8-1.2-75.7-2.3-113.5-3.2
			c-27.1-72.7-54.2-145.5-81.2-218.3c-3.2-0.1-4.9-0.1-8.1-0.2c0,72.2,0,144.5,0,216.7c-37.9-0.6-75.8-1.1-113.7-1.5
			c0-166.3,0-332.5,0-498.8c37.9,0.8,75.8,1.9,113.7,3.4c27,73.2,54.1,146.4,81.2,219.6c3.2,0.1,4.9,0.2,8.1,0.3
			C4364.5,5777.5,4364.5,5705.6,4364.5,5633.7z"/>
		<path class="st3" d="M4518.5,6132.7c0-33.9,0-67.8,0-101.7c9.7,0.4,14.6,0.7,24.3,1.1c0-94.7,0-189.4,0-284.1
			c-9.7-0.8-14.6-1.1-24.3-1.8c0-33.9,0-67.8,0-101.7c59.4,5.1,118.8,11,178,17.8c0,33.2,0,66.4,0,99.6c-9.7-1-14.5-1.5-24.3-2.4
			c0,93.3,0,186.5,0,279.8c9.7,0.6,14.6,0.9,24.3,1.5c0,33.2,0,66.4,0,99.6C4637.3,6137.5,4577.9,6134.9,4518.5,6132.7z"/>
		<path class="st3" d="M4737,5667.1c88.9,11.1,177.6,24.2,265.9,39.4c0,31.4,0,62.9,0,94.3c-45.5-6.9-91.1-13.3-136.8-19.3
			c0,28,0,56,0,84c43,5,85.9,10.3,128.8,16c0,31.5,0,63,0,94.5c-42.9-4.8-85.8-9.3-128.8-13.5c0,30.2,0,60.3,0,90.5
			c47,3.8,93.9,8,140.8,12.4c0,31.4,0,62.8,0,94.3c-89.9-6.7-179.9-12.4-269.9-17.2C4737,5984,4737,5825.6,4737,5667.1z"/>
		<path class="st3" d="M5354.7,6028.3c0,31.2,0,62.5,0,93.7c0.4,38.6-27,56.9-62.1,62.3c-62.3-6.1-124.6-11.7-187-16.9
			c-37-13.2-62.8-38.5-62.6-79.8c0-29.5,0-59,0-88.5c42.8,4.9,85.5,10.2,128.2,15.7c0,24.6,0,49.1,0,73.7c3.2,2.8,4.8,4.2,8,6.9
			c13.3,1.5,26.6,3,40,4.5c3.2-2,4.8-3,8-5c0-21.8,0-43.6,0-65.4c-2.9-3.7-4.3-5.6-7.2-9.3c-44.1-20.8-88.1-41.7-132-62.6
			c-32.4-15.1-45.4-39.4-44.9-74.4c0-31.6,0-63.2,0-94.8c-1.1-39.9,25.3-60.1,62.6-63.1c62.6,12.1,124.9,25.2,187,39.3
			c34.1,16.7,62.3,42.5,62.1,83.1c0,25.5,0,51.1,0,76.6c-42.4-8.1-84.9-15.8-127.5-23.2c0-22.6,0-45.2,0-67.8c-3.2-3-4.8-4.5-8-7.5
			c-13.3-2.6-26.6-5.1-40-7.5c-3.2,1.8-4.8,2.7-8,4.6c0,21.1,0,42.3,0,63.4c4.2,4.6,6.2,6.8,10.4,11.4c42.8,20,85.6,40.1,128.5,60
			C5341.3,5971.5,5354.9,5994.9,5354.7,6028.3z"/>
		<path class="st3" d="M3690.1,6555.2c0,63.9,0,127.7,0,191.6c-43.2-0.8-86.5-1.8-129.7-2.8c0-162.3,0-324.6,0-487
			c89.2-2.2,178.4-3.9,267.6-4.9c0,34.5,0,69,0,103.5c-46,0.3-92,0.7-138,1.2c0,31.9,0,63.9,0,95.8c43.3-0.2,86.6-0.3,129.8-0.4
			c0,34.5,0,69,0,103.5C3776.7,6555.5,3733.4,6555.4,3690.1,6555.2z"/>
		<path class="st3" d="M4185.5,6666.6c0.2,43.3-23.1,70.9-63.4,83.4c-63.4,0.2-126.7,0.1-190.1-0.2c-40.2-12.6-63.6-40.3-63.3-83.4
			c0-110.6,0-221.2,0-331.8c-0.2-43.2,23.1-70.9,63.3-83.4c63.4-0.4,126.7-0.5,190.1-0.2c40.2,12.5,63.6,40.1,63.4,83.4
			C4185.5,6445.1,4185.5,6555.9,4185.5,6666.6z M4055.5,6347.9c-3.2-2.8-4.9-4.2-8.1-6.9c-13.5,0-27.1,0-40.6,0
			c-3.2,2.8-4.9,4.2-8.1,6.9c0,101.7,0,203.4,0,305.1c3.2,2.8,4.9,4.2,8.1,6.9c13.5,0,27.1,0,40.6,0c3.2-2.8,4.9-4.2,8.1-6.9
			C4055.5,6551.3,4055.5,6449.6,4055.5,6347.9z"/>
		<path class="st3" d="M4226.1,6749.4c0-165.9,0-331.9,0-497.8c84.4,0.8,168.8,2.1,253.2,3.9c39.5,12.8,63.4,39.7,63.2,82.7
			c0,34.5,0,69,0,103.5c0.2,37.6-18.7,66.1-54.3,78.6c23.1,51.8,46.3,103.5,69.7,155.2c0,22.7,0,45.5,0,68.2
			c-37.8,1-75.6,1.8-113.5,2.6c-25-63.6-49.9-127.2-74.6-190.8c-5.5,0-8.3,0-13.8,0c0,64.1,0,128.2,0,192.4
			C4312.7,6748.5,4269.4,6749,4226.1,6749.4z M4356,6342.5c0,41.2,0,82.4,0,123.7c16.2,0,32.5,0.1,48.7,0.1c3.2-2.7,4.9-4.1,8.1-6.8
			c0-36.5,0-73,0-109.5c-3.2-2.8-4.9-4.2-8.1-6.9C4388.4,6342.8,4372.2,6342.6,4356,6342.5z"/>
		<path class="st3" d="M3260.6,7053.4c-1.6-0.2-2.4-0.2-4-0.4c0,88.6,0,177.2,0,265.8c-40.3-5.9-80.6-12.1-120.8-18.8
			c0-152,0-304.1,0-456.1c47,3.3,93.9,6.4,140.9,9.3c23,56.1,45.9,112.2,68.6,168.4c3.2,0.3,4.8,0.4,8.1,0.6
			c23.1-53.6,46-107.3,68.7-161.1c47.2,2.3,94.4,4.3,141.6,6.1c0,162.4,0,324.7,0,487.1c-40.5-3.6-81-7.6-121.4-12
			c0-91.2,0-182.3,0-273.5c-1.6-0.1-2.4-0.2-4-0.3c-13.4,34.3-26.9,68.7-40.4,103c-32.3-3.1-64.6-6.4-96.9-9.9
			C3287.6,7125.6,3274.1,7089.5,3260.6,7053.4z"/>
		<path class="st3" d="M3789.1,7273.3c-20.6-0.9-41.1-1.8-61.7-2.9c-3.2,31.8-6.5,63.6-9.7,95.5c-40.6-2.5-81.1-5.4-121.6-8.7
			c0-27.4,0-54.8,0-82.1c24.8-134.7,49.3-269.4,73.8-404.2c59,1.7,117.9,3.1,176.9,4c24.7,138.5,49.3,277.1,73.9,415.7
			c0,27.9,0,55.8,0,83.8c-40.6-1-81.2-2.4-121.8-4.2C3795.6,7337.9,3792.4,7305.6,3789.1,7273.3z M3738,7168
			c13.5,0.6,27,1.1,40.6,1.7c-5.4-52.2-10.8-104.5-16.2-156.7c-3.2-0.1-4.9-0.2-8.1-0.3C3748.8,7064.5,3743.4,7116.2,3738,7168z"/>
		<path class="st3" d="M4265.9,7175.8c0,37.7,0,75.5,0,113.2c0.2,43.4-23.3,71.6-63.3,84.9c-63.4,1.6-126.7,2.3-190.1,1.9
			c-40.4-12.7-63.6-40.7-63.4-84c0-32.8,0-65.6,0-98.4c43.3,0.6,86.6,0.8,130,0.7c0,28.2,0,56.4,0,84.6c3.2,2.8,4.9,4.1,8.1,6.9
			c13.5-0.1,27.1-0.2,40.6-0.4c3.2-2.8,4.9-4.2,8.1-7c0-25.4,0-50.8,0-76.2c-2.9-3.8-4.4-5.8-7.3-9.6c-44.8-16.7-89.5-33.8-134-51.1
			c-35.5-13.6-45.7-40.8-45.5-76.7c0-35.1,0-70.2,0-105.3c-0.2-43.2,23-70.6,63.4-82.8c63.4,0.2,126.7-0.1,190.1-0.8
			c40.2,11.8,63.6,38.8,63.3,82c0,30.8,0,61.7,0,92.5c-43.3,1-86.6,1.7-129.9,2.2c0-26.3,0-52.7,0-79c-3.2-2.7-4.9-4.1-8.1-6.9
			c-13.5,0.1-27.1,0.2-40.6,0.2c-3.2,2.8-4.9,4.2-8.1,7c0,24.3,0,48.5,0,72.8c4.2,4.4,6.3,6.6,10.6,11.1
			c43.5,14.8,87.1,29.3,130.8,43.4C4256.6,7112.5,4266,7140.7,4265.9,7175.8z"/>
		<path class="st3" d="M4432.2,7164.9c0,66.1,0,132.1,0,198.2c-43.2,2.9-86.5,5.3-129.8,7.3c0-165.4,0-330.8,0-496.2
			c43.3-0.9,86.6-1.9,129.8-3.2c0,63.8,0,127.6,0,191.3c6.5-0.3,9.7-0.4,16.2-0.7c22.3-64.5,44.8-128.9,67.3-193.3
			c39.4-1.4,78.8-3,118.2-4.8c0,24.1,0,48.2,0,72.3c-24.1,57.4-48.1,114.9-72,172.4c23.8,55.1,47.8,110.1,72,165
			c0,24.1,0,48.2,0,72.3c-39.4,4.1-78.8,7.8-118.2,11.1c-23.1-64.2-46.1-128.4-68.9-192.6C4441,7164.4,4438.1,7164.6,4432.2,7164.9z
			"/>
		<path class="st3" d="M4969.5,7120.2c0,34.6,0,69.3,0,103.9c0.2,42.5-25.7,69.8-62.8,86.1c-62.8,9.7-125.7,18.3-188.7,26
			c-39.7-6.9-63.4-31.5-63.1-72.9c0-31.6,0-63.2,0-94.8c43.1-3.8,86.2-7.9,129.3-12.3c0,26.7,0,53.3,0,80c3.2,2.2,4.8,3.4,8.1,5.6
			c13.4-1.6,26.9-3.3,40.3-5c3.2-3,4.8-4.5,8.1-7.5c0-23.8,0-47.6,0-71.4c-2.9-3.3-4.4-5-7.3-8.3c-44.6-11.2-89-23.1-133.2-35.5
			c-35.3-9.6-45.7-35.5-45.3-69.7c0-33.8,0-67.7,0-101.5c-0.2-42.8,24-69.7,63.1-83.2c62.9-3.3,125.9-7,188.7-11.2
			c38,8.3,63.1,30.8,62.8,71.7c0,28.3,0,56.6,0,84.9c-42.9,4.5-85.9,8.7-128.8,12.6c0-24.7,0-49.3,0-74c-3.2-2.3-4.8-3.5-8.1-5.9
			c-13.4,1-26.9,2-40.3,3c-3.2,2.8-4.8,4.3-8.1,7.1c0,22.9,0,45.9,0,68.8c4.2,3.8,6.3,5.8,10.5,9.6c43.1,10.4,86.4,20.2,129.7,29.5
			C4959.5,7062.1,4969.7,7087.5,4969.5,7120.2z"/>
	</g>
</g>
<text transform="matrix(1 0 0 1 12532.3682 2588.1318)" style="font-family:'Countach-Bold'; font-size:853.381px;">Countach</text>
</svg>
